# xmcd
# 
# Track frame offsets:
#     150
#     18410
#     36820
#     52130
#     70792
#     89732
#     112267
#     128432
#     144672
#     161187
# 
# Disc length: 2384
# 
# Revision: 6
# Processed by: cddbd v1.5.2PL0 Copyright (c) Steve Scherf et al.
# Submitted via: fre:ac v1.0.31
# 
DISCID=92094e0a
DTITLE=江蕙 - 世紀金選 CD2
DYEAR=1998
DGENRE=POP
TTITLE0=藝界人生
TTITLE1=愛到袂凍愛
TTITLE2=愛不對人
TTITLE3=苦酒的探戈
TTITLE4=悲情歌聲
TTITLE5=秋雨彼一瞑
TTITLE6=惜別的海岸
TTITLE7=不想伊
TTITLE8=相思夢
TTITLE9=一種感覺
EXTD=
EXTT0=
EXTT1=
EXTT2=
EXTT3=
EXTT4=
EXTT5=
EXTT6=
EXTT7=
EXTT8=
EXTT9=
PLAYORDER=
